/* XPM */
static char *product_logo_32[] = {
/* columns rows colors chars-per-pixel */
"32 32 132 2 ",
"   c None",
".  c #C74109",
"X  c #CB430A",
"o  c #D44407",
"O  c #D2460B",
"+  c #D8470A",
"@  c #D5490D",
"#  c #DB4C0D",
"$  c #DF500F",
"%  c #D64E15",
"&  c #DC4E10",
"*  c #DE5113",
"=  c #D7521A",
"-  c #DC581D",
";  c #E14F0E",
":  c #E2500F",
">  c #E45413",
",  c #E95713",
"<  c #E75816",
"1  c #EA5916",
"2  c #E45A1C",
"3  c #ED5D19",
"4  c #F05E17",
"5  c #F15F18",
"6  c #EF601B",
"7  c #F1601B",
"8  c #DD5A23",
"9  c #E35D21",
"0  c #DA642F",
"q  c #DB6935",
"w  c #DF713E",
"e  c #EC6424",
"r  c #E1652F",
"t  c #E26933",
"y  c #E86A31",
"u  c #EB7137",
"i  c #E77039",
"p  c #E9713A",
"a  c #DE7748",
"s  c #DE7B4C",
"d  c #E07343",
"f  c #E07847",
"g  c #E97844",
"h  c #EB7C48",
"j  c #F27C41",
"k  c #DD855B",
"l  c #ED814F",
"z  c #E78354",
"x  c #EB8354",
"c  c #E5865E",
"v  c #E68A5F",
"b  c #EB8858",
"n  c #F08857",
"m  c #F48D5B",
"M  c #D98963",
"N  c #E38D67",
"B  c #EB8D63",
"V  c #E78E68",
"C  c #EB9067",
"Z  c #E59069",
"A  c #EA936D",
"S  c #E49571",
"D  c #E49A78",
"F  c #F59D73",
"G  c #D69E84",
"H  c #D9A086",
"J  c #DEB19D",
"K  c #EEA481",
"L  c #EFA788",
"P  c #E2A98E",
"I  c #EFAE92",
"U  c #F7B89A",
"Y  c #D4B2A2",
"T  c #D5BAAD",
"R  c #DBBEB1",
"E  c #E6B8A1",
"W  c #E1BEAE",
"Q  c #F3BDA5",
"!  c #F1BEA8",
"~  c #D9C1B7",
"^  c #EDC0AC",
"/  c #F5C3AC",
"(  c #E3C2B3",
")  c #DACFCA",
"_  c #D9D2CE",
"`  c #F6D5C8",
"'  c #F7DACE",
"]  c #FBDBCC",
"[  c #E7D8D0",
"{  c #E3DDDB",
"}  c #F1E0D7",
"|  c #F9E2D8",
" . c #FBE3D9",
".. c #E2E4E5",
"X. c #E4E4E4",
"o. c #EAE4E1",
"O. c #ECE5E1",
"+. c #EAE8E7",
"@. c #E7E8E8",
"#. c #EAE9E9",
"$. c #E9EAEA",
"%. c #E9EBEB",
"&. c #EAECED",
"*. c #ECEEEF",
"=. c #EDEEEF",
"-. c #FBE8E0",
";. c #FBEAE3",
":. c #FCEAE2",
">. c #F1F2F2",
",. c #F3F3F2",
"<. c #F1F3F4",
"1. c gray96",
"2. c #FEF5F1",
"3. c #FEF7F3",
"4. c #FDF7F4",
"5. c #FEF8F6",
"6. c #F9F8F8",
"7. c #F8F9F9",
"8. c #F9F9F9",
"9. c #FBFAFA",
"0. c #FEFAF8",
"q. c #FEFAF9",
"w. c #FEFBFA",
"e. c #FFFCFB",
"r. c gray99",
"t. c #FFFDFC",
"y. c #FEFEFE",
"u. c #FFFEFE",
"i. c #FFFFFE",
"p. c #FEFEFF",
"a. c #FEFFFF",
"s. c white",
/* pixels */
"                        > # O O                                 ",
"                          > & O O #                             ",
"                          > > > @ X @ > >                       ",
"                  1 h B p > > > > @ X O * >                     ",
"                    g W S > > > > # @ X X * > ,                 ",
"                      t 9 > > > > # # O . X > , 1               ",
"                      > > > > > > # # # X . X > 1 3             ",
"                    1 > > > > > > # # # @ X X @ 1 3 3           ",
"                  1 1 > > > > > > # # # # X X X & 3 3 3         ",
"                3 1 1 > > > > > > # # # # O X X X > 3 3         ",
"              3 3 1 1 > > > : ; # # # # # @ X X X & 3 3 7       ",
"            3 3 3 1 1 > > y x B C x r # # # X X . O 1 3 7       ",
"          7 3 3 1 1 3 l Q :.s.s.s.s.:.I 8 + O X X X < 3 6 7     ",
"      7 5 4 1 1 e n / 2.s.s.s.s.s.s.s.s.! * O X @ & > 3 3 7     ",
"    j m m m F U ] 5.s.s.s.s.s.s.s.s.s.s.s.c o X @ > < 3 3 7     ",
"      K } s.s.s.s.s.s.s.s.s.s.s.s.s.s.s.s.Q @ X @ 1 1 3 3 7     ",
"        b E [ o.+.*.*.*.*.*.<.s.s.s.s.s.s.` % X @ 1 3 3 3 7     ",
"          e u h z v Z D P ( { @.<.s.s.s.s.' = . & 1 1 3 3 7     ",
"                1 , , > > < N { @.s.s.s.Q / % X * 1 1 3 3 6     ",
"                        > > < W X.s.s.2.B V O X > 1 1 3 3       ",
"                          > > J X.s.s. .t 8 X @ > 1 1 3 3       ",
"                          > < R @.s.s.I # O X & > 1 1 3         ",
"                          > d _ <.s.:.t # O X > > > 1 3         ",
"                        > > H X.s.s.A # # X @ > > > 1           ",
"                      > > a ) s.s.L * # O X * > > >             ",
"                      > t T <.2.K * # O X # > > >               ",
"                    , t Y *. .B > # O X @ & > >                 ",
"                  1 w T o.Q t ; # O X @ # &                     ",
"                e M ~ ^ x > > # X X @ # #                       ",
"              s G P x 3 > & O X O O #                           ",
"          f k k i < $ # O X O O                                 ",
"        q 0 - # @ O O O                                         "
};
